<?xml version="1.0" encoding="UTF-8"?>
<svg id="ARTWORK" xmlns="http://www.w3.org/2000/svg" viewBox="0 0 2000 500">
  <defs>
    <style>
      .cls-1 {
        fill: #e8ff7d;
      }
    </style>
  </defs>
  <path class="cls-1" d="M50,372.36v-144.42c0-7.02,2.42-12.95,7.27-17.8,4.84-4.84,10.78-7.27,17.8-7.27h6.52c4.68,0,8.94-1.67,12.79-5.02,3.84-3.34,5.77-8.35,5.77-15.04v-5.01c0-7.02,2.42-12.95,7.27-17.8,4.84-4.84,10.78-7.27,17.8-7.27h94.27c7.02,0,12.95,2.43,17.8,7.27,4.84,4.85,7.27,10.78,7.27,17.8v6.52c0,4.69,1.67,8.95,5.01,12.79,3.34,3.85,8.35,5.77,15.04,5.77h5.01c7.02,0,12.95,2.43,17.8,7.27,4.84,4.85,7.27,10.78,7.27,17.8v144.42c0,7.02-2.43,12.96-7.27,17.8-4.85,4.85-10.78,7.27-17.8,7.27h-6.52c-4.69,0-8.95,1.68-12.79,5.02-3.85,3.35-5.77,8.36-5.77,15.04v5.01c0,7.02-2.43,12.95-7.27,17.8-4.85,4.84-10.78,7.27-17.8,7.27h-94.27c-7.02,0-12.96-2.43-17.8-7.27-4.85-4.85-7.27-10.78-7.27-17.8v-6.52c0-4.68-1.68-8.94-5.01-12.79-3.35-3.84-8.36-5.77-15.04-5.77h-5.01c-7.02,0-12.96-2.42-17.8-7.27-4.85-4.84-7.27-10.78-7.27-17.8ZM200.44,333.74v-67.19c0-13.04-6.52-19.56-19.56-19.56h-17.05c-13.04,0-19.56,6.52-19.56,19.56v67.19c0,13.04,6.52,19.56,19.56,19.56h17.05c13.04,0,19.56-6.52,19.56-19.56Z"/>
  <path class="cls-1" d="M325.8,152.72h44.13c7.02,0,12.95,2.43,17.8,7.27,4.84,4.85,7.27,10.78,7.27,17.8v55.66c0,13.04,6.52,19.56,19.56,19.56h6.02c7.02,0,12.87,2.51,17.55,7.52,4.68,5.02,7.02,10.87,7.02,17.55v72.71c0,1.68.83,2.51,2.51,2.51h1c1.67,0,2.51-.83,2.51-2.51v-72.71c0-6.68,2.42-12.54,7.27-17.55,4.84-5.01,10.61-7.52,17.3-7.52h6.02c13.04,0,19.56-6.52,19.56-19.56v-55.66c0-7.02,2.42-12.95,7.27-17.8s10.78-7.27,17.8-7.27h44.13c7.02,0,12.95,2.43,17.8,7.27,4.84,4.85,7.27,10.78,7.27,17.8v94.27c0,7.02-2.43,12.96-7.27,17.8-4.85,4.85-10.78,7.27-17.8,7.27h-6.52c-4.69,0-8.95,1.68-12.79,5.01-3.85,3.35-5.77,8.36-5.77,15.04v55.16c0,7.02-2.43,12.96-7.27,17.8-4.85,4.85-10.78,7.27-17.8,7.27h-6.52c-4.69,0-8.95,1.68-12.79,5.02-3.85,3.35-5.77,8.36-5.77,15.04v5.01c0,7.02-2.43,12.95-7.27,17.8-4.85,4.84-10.78,7.27-17.8,7.27h-44.13c-7.02,0-12.96-2.43-17.8-7.27-4.85-4.85-7.27-10.78-7.27-17.8v-6.52c0-4.68-1.68-8.94-5.01-12.79-3.35-3.84-8.36-5.77-15.04-5.77h-5.01c-7.02,0-12.96-2.42-17.8-7.27-4.85-4.84-7.27-10.78-7.27-17.8v-55.16c0-6.68-1.93-11.7-5.77-15.04-3.85-3.34-8.11-5.01-12.79-5.01h-6.52c-7.02,0-12.96-2.42-17.8-7.27-4.85-4.84-7.27-10.78-7.27-17.8v-94.27c0-7.02,2.42-12.95,7.27-17.8,4.84-4.84,10.78-7.27,17.8-7.27Z"/>
  <path class="cls-1" d="M821.24,447.57h-144.42c-7.02,0-12.96-2.43-17.8-7.27-4.85-4.85-7.27-10.78-7.27-17.8v-6.52c0-4.68-1.68-8.94-5.01-12.79-3.35-3.84-8.36-5.77-15.04-5.77h-5.01c-7.02,0-12.96-2.42-17.8-7.27-4.85-4.84-7.27-10.78-7.27-17.8v-144.42c0-7.02,2.42-12.95,7.27-17.8,4.84-4.84,10.78-7.27,17.8-7.27h6.52c4.68,0,8.94-1.67,12.79-5.02,3.84-3.34,5.77-8.35,5.77-15.04v-5.01c0-7.02,2.42-12.95,7.27-17.8,4.84-4.84,10.78-7.27,17.8-7.27h94.27c7.02,0,12.95,2.43,17.8,7.27,4.84,4.85,7.27,10.78,7.27,17.8v6.52c0,4.69,1.67,8.95,5.02,12.79,3.34,3.85,8.35,5.77,15.04,5.77h5.02c7.02,0,12.95,2.43,17.8,7.27,4.84,4.85,7.27,10.78,7.27,17.8v94.27c0,7.02-2.43,12.96-7.27,17.8-4.85,4.85-10.78,7.27-17.8,7.27h-122.86c-1.68,0-2.51.84-2.51,2.51v1c0,1.68.83,2.51,2.51,2.51h122.86c7.02,0,12.95,2.43,17.8,7.27,4.84,4.85,7.27,10.78,7.27,17.8v44.13c0,7.02-2.43,12.95-7.27,17.8-4.85,4.84-10.78,7.27-17.8,7.27ZM695.87,249.5v1c0,1.68.83,2.51,2.51,2.51h51.15c1.67,0,2.51-.83,2.51-2.51v-1c0-1.67-.84-2.51-2.51-2.51h-51.15c-1.68,0-2.51.84-2.51,2.51Z"/>
  <path class="cls-1" d="M946.6,317.2v105.31c0,7.02-2.43,12.95-7.27,17.8-4.85,4.84-10.78,7.27-17.8,7.27h-44.13c-7.02,0-12.96-2.43-17.8-7.27-4.85-4.85-7.27-10.78-7.27-17.8v-244.71c0-7.02,2.42-12.95,7.27-17.8,4.84-4.84,10.78-7.27,17.8-7.27h44.13c7.02,0,12.95,2.43,17.8,7.27,4.84,4.85,7.27,10.78,7.27,17.8v22.57c0,1.68.83,2.51,2.51,2.51h1c1.67,0,2.51-.83,2.51-2.51v-22.57c0-7.02,2.42-12.95,7.27-17.8,4.84-4.84,10.78-7.27,17.8-7.27h44.13c7.02,0,12.95,2.43,17.8,7.27,4.84,4.85,7.27,10.78,7.27,17.8v44.13c0,7.02-2.43,12.96-7.27,17.8-4.85,4.85-10.78,7.27-17.8,7.27h-6.52c-4.69,0-8.95,1.68-12.79,5.01-3.85,3.35-5.77,8.36-5.77,15.04v5.01c0,6.69-2.34,12.46-7.02,17.3-4.69,4.85-10.53,7.44-17.55,7.77h-5.52c-6.69,0-11.71,1.76-15.04,5.26-3.35,3.51-5.01,8.45-5.01,14.79Z"/>
  <path class="cls-1" d="M1052.9,372.36V77.5c0-7.02,2.42-12.95,7.27-17.8,4.84-4.84,10.78-7.27,17.8-7.27h44.13c7.02,0,12.95,2.43,17.8,7.27,4.84,4.85,7.27,10.78,7.27,17.8v55.16c0,6.35,1.76,11.28,5.27,14.79,3.51,3.51,8.44,5.27,14.79,5.27h5.52c6.68.34,12.45,2.93,17.3,7.77,4.84,4.85,7.27,10.62,7.27,17.3v44.13c0,6.69-2.34,12.46-7.02,17.3-4.69,4.85-10.53,7.44-17.55,7.77h-5.52c-6.69,0-11.71,1.76-15.04,5.27-3.35,3.51-5.01,8.45-5.01,14.79v66.69c0,13.04,6.52,19.56,19.56,19.56h6.02c7.02.34,12.87,2.93,17.55,7.77,4.68,4.85,7.02,10.62,7.02,17.3v44.13c0,6.68-2.34,12.45-7.02,17.3-4.69,4.84-10.53,7.44-17.55,7.77h-44.63c-7.02,0-12.96-2.43-17.8-7.27-4.85-4.85-7.27-10.78-7.27-17.8v-5.01c0-6.68-1.93-11.7-5.77-15.04-3.85-3.34-8.11-5.02-12.79-5.02h-6.52c-7.02,0-12.96-2.42-17.8-7.27-4.85-4.84-7.27-10.78-7.27-17.8Z"/>
  <path class="cls-1" d="M1203.34,372.36v-144.42c0-7.02,2.42-12.95,7.27-17.8,4.84-4.84,10.78-7.27,17.8-7.27h6.52c4.68,0,8.94-1.67,12.79-5.02,3.84-3.34,5.77-8.35,5.77-15.04v-5.01c0-7.02,2.42-12.95,7.27-17.8,4.84-4.84,10.78-7.27,17.8-7.27h94.27c7.02,0,12.95,2.43,17.8,7.27,4.84,4.85,7.27,10.78,7.27,17.8v6.52c0,4.69,1.67,8.95,5.01,12.79,3.34,3.85,8.35,5.77,15.04,5.77h5.01c7.02,0,12.95,2.43,17.8,7.27,4.84,4.85,7.27,10.78,7.27,17.8v144.42c0,7.02-2.43,12.96-7.27,17.8-4.85,4.85-10.78,7.27-17.8,7.27h-6.52c-4.69,0-8.95,1.68-12.79,5.02-3.85,3.35-5.77,8.36-5.77,15.04v5.01c0,7.02-2.43,12.95-7.27,17.8-4.85,4.84-10.78,7.27-17.8,7.27h-94.27c-7.02,0-12.96-2.43-17.8-7.27-4.85-4.85-7.27-10.78-7.27-17.8v-6.52c0-4.68-1.68-8.94-5.01-12.79-3.35-3.84-8.36-5.77-15.04-5.77h-5.01c-7.02,0-12.96-2.42-17.8-7.27-4.85-4.84-7.27-10.78-7.27-17.8ZM1353.77,333.74v-67.19c0-13.04-6.52-19.56-19.56-19.56h-17.05c-13.04,0-19.56,6.52-19.56,19.56v67.19c0,13.04,6.52,19.56,19.56,19.56h17.05c13.04,0,19.56-6.52,19.56-19.56Z"/>
  <path class="cls-1" d="M1454.06,422.5v-244.71c0-7.02,2.42-12.95,7.27-17.8,4.84-4.84,10.78-7.27,17.8-7.27h144.42c7.02,0,12.95,2.43,17.8,7.27,4.84,4.85,7.27,10.78,7.27,17.8v6.52c0,4.69,1.67,8.95,5.01,12.79,3.34,3.85,8.35,5.77,15.04,5.77h5.01c7.02,0,12.95,2.43,17.8,7.27,4.84,4.85,7.27,10.78,7.27,17.8v194.57c0,7.02-2.43,12.95-7.27,17.8-4.85,4.84-10.78,7.27-17.8,7.27h-44.13c-7.02,0-12.96-2.43-17.8-7.27-4.85-4.85-7.27-10.78-7.27-17.8v-155.95c0-13.04-6.52-19.56-19.56-19.56h-16.55c-13.37,0-20.06,6.69-20.06,20.06v155.45c0,7.02-2.43,12.95-7.27,17.8-4.85,4.84-10.78,7.27-17.8,7.27h-44.13c-7.02,0-12.96-2.43-17.8-7.27-4.85-4.85-7.27-10.78-7.27-17.8Z"/>
  <path class="cls-1" d="M1924.93,447.57h-144.42c-7.02,0-12.96-2.43-17.8-7.27-4.85-4.85-7.27-10.78-7.27-17.8v-6.52c0-4.68-1.68-8.94-5.01-12.79-3.35-3.84-8.36-5.77-15.04-5.77h-5.01c-7.02,0-12.96-2.42-17.8-7.27-4.85-4.84-7.27-10.78-7.27-17.8v-144.42c0-7.02,2.42-12.95,7.27-17.8,4.84-4.84,10.78-7.27,17.8-7.27h6.52c4.68,0,8.94-1.67,12.79-5.02,3.84-3.34,5.77-8.35,5.77-15.04v-5.01c0-7.02,2.42-12.95,7.27-17.8,4.84-4.84,10.78-7.27,17.8-7.27h94.27c7.02,0,12.95,2.43,17.8,7.27,4.84,4.85,7.27,10.78,7.27,17.8v6.52c0,4.69,1.67,8.95,5.01,12.79,3.34,3.85,8.35,5.77,15.04,5.77h5.01c7.02,0,12.95,2.43,17.8,7.27,4.84,4.85,7.27,10.78,7.27,17.8v94.27c0,7.02-2.43,12.96-7.27,17.8-4.85,4.85-10.78,7.27-17.8,7.27h-122.86c-1.68,0-2.51.84-2.51,2.51v1c0,1.68.83,2.51,2.51,2.51h122.86c7.02,0,12.95,2.43,17.8,7.27,4.84,4.85,7.27,10.78,7.27,17.8v44.13c0,7.02-2.43,12.95-7.27,17.8-4.85,4.84-10.78,7.27-17.8,7.27ZM1799.56,249.5v1c0,1.68.83,2.51,2.51,2.51h51.15c1.67,0,2.51-.83,2.51-2.51v-1c0-1.67-.84-2.51-2.51-2.51h-51.15c-1.68,0-2.51.84-2.51,2.51Z"/>
</svg>