<?xml version="1.0" encoding="UTF-8"?>
<svg id="ARTWORK" xmlns="http://www.w3.org/2000/svg" viewBox="0 0 1000 1000">
  <defs>
    <style>
      .cls-1 {
        fill: #e8ff7d;
      }
    </style>
  </defs>
  <path class="cls-1" d="M866.88,406.15c6.13-6.45,15.35-9.68,27.64-9.68h10.14c12.28-.6,22.88-5.37,31.79-14.28,8.9-8.9,13.36-19.5,13.36-31.79v-70.03c0-12.28-4.46-22.88-13.36-31.79-8.91-8.9-19.51-13.66-31.79-14.28h-10.14c-12.3,0-21.51-3.23-27.64-9.68-6.15-6.45-9.22-15.51-9.22-27.18v-101.36c0-12.9-4.46-23.8-13.36-32.71-8.91-8.9-19.81-13.36-32.71-13.36h-70.03c-12.9,0-23.81,4.61-32.71,13.82-8.91,9.22-13.36,19.97-13.36,32.25l-.26,471.51c0,23.96-11.98,35.94-35.94,35.94h-11.06c-12.3,0-22.89,4.61-31.79,13.82-8.91,9.22-13.36,19.97-13.36,32.25v129.93c0,5.53-2.77,8.29-8.29,8.29h-5.53c-5.53,0-8.29-2.77-8.29-8.29v-129.93c0-12.28-4.31-23.04-12.9-32.25-8.61-9.22-19.35-13.82-32.25-13.82h-11.06c-23.96,0-35.94-11.98-35.94-35.94V192.83c0-12.9-4.46-23.8-13.36-32.71-8.91-8.9-19.81-13.36-32.71-13.36h-9.22c-12.3,0-21.51-3.53-27.64-10.6-6.15-7.05-9.22-14.89-9.22-23.5v-11.98c0-12.9-4.46-23.8-13.36-32.71-8.91-8.9-19.81-13.36-32.71-13.36h-162.18c-12.9,0-23.82,4.46-32.71,13.36-8.91,8.91-13.36,19.81-13.36,32.71v9.22c0,12.3-3.54,21.51-10.6,27.64-7.07,6.15-14.9,9.21-23.5,9.21h-11.98c-12.9,0-23.81,4.46-32.71,13.36-8.91,8.91-13.36,19.81-13.36,32.71v254.33c0,12.9,4.45,23.81,13.36,32.71,8.9,8.91,19.81,13.36,32.71,13.36h9.22c12.28,0,21.5,3.54,27.64,10.6,6.13,7.07,9.21,14.9,9.21,23.5v11.98c0,12.9,4.45,23.8,13.36,32.71,8.9,8.9,19.81,13.36,32.71,13.36h138.22v42.1c0,12.9,4.45,23.82,13.36,32.71,8.9,8.91,19.81,13.36,32.71,13.36h11.98c8.6,0,16.43,3.08,23.5,9.21,7.05,6.15,10.6,15.36,10.6,27.64v101.36c0,12.9,4.45,23.81,13.36,32.71,8.9,8.91,19.81,13.36,32.71,13.36h9.21c12.28,0,21.5,3.54,27.64,10.6,6.13,7.07,9.22,14.9,9.22,23.5v11.98c0,12.9,4.45,23.8,13.36,32.71s19.81,13.36,32.71,13.36h70.03c12.9,0,23.8-4.46,32.71-13.36,8.9-8.91,13.36-19.81,13.36-32.71v-9.21c0-12.28,3.53-21.5,10.6-27.64,7.05-6.13,14.89-9.22,23.5-9.22h11.98c12.9,0,23.8-4.45,32.71-13.36,8.9-8.9,13.36-19.81,13.36-32.71v-101.36c0-1.31.06-2.57.14-3.81v-16.35c0-5.53,2.77-8.29,8.29-8.29h5.53c5.53,0,8.29,2.77,8.29,8.29v16.46c.05,1.01.11,2.01.11,3.07v9.21c0,12.9,4.45,23.8,13.36,32.71,8.9,8.9,19.81,13.36,32.71,13.36h70.95c12.28-.62,22.88-5.38,31.79-14.28,8.9-8.91,13.36-19.51,13.36-31.79v-70.03c0-12.28-4.46-22.88-13.36-31.79-8.91-8.9-19.51-13.66-31.79-14.28h-11.06c-23.96,0-35.94-11.98-35.94-35.94v-133.61c0-11.66,3.07-20.73,9.22-27.18ZM326.63,387.26c0,23.96-11.98,35.94-35.94,35.94h-42.39c-23.96,0-35.94-11.98-35.94-35.94v-134.54c0-23.96,11.98-35.94,35.94-35.94h42.39c23.96,0,35.94,11.98,35.94,35.94v134.54Z"/>
</svg>